<svg xmlns="http://www.w3.org/2000/svg" xmlns:xlink="http://www.w3.org/1999/xlink" viewBox="0 0 2526.85 2593.51"><defs><style>.cls-1{stroke:#15170f;stroke-width:0.75px;fill:url(#linear-gradient);}.cls-1,.cls-3,.cls-4{stroke-miterlimit:10;}.cls-2{fill:#007374;}.cls-3{fill:#477abd;stroke:#13170f;}.cls-4{fill:#264395;stroke:#16160e;}</style><linearGradient id="linear-gradient" x1="0.38" y1="899.3" x2="2526.47" y2="899.3" gradientUnits="userSpaceOnUse"><stop offset="0" stop-color="#03a8d4"/><stop offset="1" stop-color="#41ab37"/></linearGradient></defs><g id="Layer_2" data-name="Layer 2"><g id="Layer_1-2" data-name="Layer 1"><path class="cls-1" d="M2526.47,1017.62c0,205.43-91.57,389.48-236.12,513.54C2197,1215.84,1909.2,984,1565.86,974.71A852.73,852.73,0,0,0,911.72,670.17C439.65,670.17,57,1052.85,57,1524.92a853.7,853.7,0,0,0,44.63,273.3c-106.94-254.31-133.85-544.61-58.07-832C226,274.13,935.06-139,1627.16,43.53,1990.5,139.35,2277,380.27,2440.7,687.69q13.74,25.81,26.32,52.23a673,673,0,0,1,59.45,277.7Z"/><path class="cls-2" d="M281.07,2101.88A854,854,0,0,1,101.6,1798.22,1303.38,1303.38,0,0,0,281.07,2101.88Z"/><path class="cls-3" d="M1870,2459c-270.67,133.65-589,173.87-903.79,90.85C684.49,2475.56,449,2314,281.07,2101.88A1303.38,1303.38,0,0,1,101.6,1798.22,853.7,853.7,0,0,1,57,1524.92c0-472.07,382.68-854.75,854.75-854.75a859.11,859.11,0,0,1,153.1,13.68,852.58,852.58,0,0,1,501,290.86q-10.72-.29-21.53-.29a777.7,777.7,0,0,0-777.92,777.92c0,249.23,117.2,471.09,299.5,613.45A778.78,778.78,0,0,0,1870,2459Z"/><path class="cls-4" d="M2317.49,1838.86c-26.69,241.28-163.74,449.28-359.53,572.44q-43,25.51-87.94,47.7a778.78,778.78,0,0,1-804.11-93.21c-182.3-142.36-299.5-364.22-299.5-613.45a774.27,774.27,0,0,1,125.26-423.47c50.74,365.6,332.72,657.26,693.48,722.5a859.14,859.14,0,0,0,153.11,13.68C1961.74,2065.05,2165.2,1979.28,2317.49,1838.86Z"/></g></g></svg>